<?xml version="1.0" encoding="utf-8"?>
<!-- Generator: Adobe Illustrator 27.4.0, SVG Export Plug-In . SVG Version: 6.00 Build 0)  -->
<svg version="1.1" id="Layer_1" xmlns="http://www.w3.org/2000/svg" xmlns:xlink="http://www.w3.org/1999/xlink" x="0px" y="0px"
	 viewBox="0 0 468 468" style="enable-background:new 0 0 468 468;" xml:space="preserve">
<path d="M90.3,260.8c-2.5,0.9-4.6,1.4-6.5,2.3c-6.7,3.2-12.5-0.2-18.3-2.6c-2.1-0.9-4.5-1.8-6.1-3.4c-2.5-2.6-4.8-5.5-6.6-8.6
	c-7.2-12.1-8.8-25.5-6.8-39c2.4-15.9,5.5-31.8,9.2-47.5c1.8-7.6,4.8-15,8.5-21.9c5.1-9.8,18.7-11.5,26.7-4c4,3.8,7.7,8.1,11.6,12.3
	c2.1-10.5,3.9-21.6,6.6-32.6c2.3-9.5,5.3-18.8,8.2-28.1c1.9-6,3.6-12.1,6.4-17.7c1.8-3.7,5.2-6.8,8.3-9.7
	c5.8-5.3,11.9-10.3,17.9-15.3c0.8-0.7,2.1-0.9,3-1.5c3.6-2.1,7.8-3.4,9.4-8.2c1.3-4,4.7-4.5,8.5-4c2,0.2,4.5,0.3,6.1-0.6
	c7.7-4.5,16.3-4.1,24.6-5.1c4.8-0.6,9.9,0.2,14.7,1.2c14.2,3,28.1,6.9,41.4,13c4.6,2.2,9,5.3,14.8,3.6c2.5-0.7,6.6,4.9,6.9,7.2
	c10.2,8.5,20,15.4,28.3,23.9c7.7,7.9,15.6,16.2,20.5,29c10.2,14.9,19.1,32.7,23.1,53.4c2.1-4.6,4.4-8.7,5.9-13.2
	c1.3-3.8,2.7-6.5,6.6-8.5c3-1.5,4.7-5.8,7.7-7.2c6.5-3.1,13-4.7,20.5-0.8c7.8,3.9,13.1,9.9,16.7,16.9c3.9,7.6,6,16.3,8.4,24.7
	c1.8,6.2,3,12.7,3.8,19.1c0.5,4.1-0.3,8.4-0.6,12.6c-0.2,3.4-1.2,6.8-0.8,10.1c1.2,9.8-2.4,18.4-5.9,27c-2.1,5.3-4.3,10.8-7.5,15.5
	c-2,3-5.6,5.1-8.6,7.3c-9.9,7-20.7,6.3-31.7,3.6c-1.9-0.5-3.7-1-5-1.4c-1.5,12.5-2.1,24.7-4.5,36.5C353,312,349,324.5,345.4,337
	c-2.2,7.8-4.7,15.5-7.4,23.2c-0.8,2.3-2.6,4.3-3.6,6.5c-2.9,6.1-3.5,13.5-10.1,17.6c-0.6,0.4-1.2,1.4-1.1,2c1,5.8-2.9,9.4-5.8,13.5
	c-3.1,4.4-6.3,8.7-9.7,12.9c-11.9,14.9-24.9,28-44.4,33.3c-17,4.6-33.4,3.6-49.1-2.9c-9.7-4-18.6-10.2-27.3-16.4
	c-8.1-5.8-16.1-12-22.9-19.2c-11.4-12-22-24.8-32.3-37.8c-5.5-7-9.5-15.1-14.3-22.6c-7.8-12.3-12.5-26.2-17.1-39.7
	c-3.9-11.4-8.9-23-7.8-35.8C92.8,268.2,91.2,264.8,90.3,260.8L90.3,260.8z M126,102.7c-2.4,8.9-4.9,17.3-6.8,25.9
	c-2.1,9.6-3.1,19.5-5.5,29c-2.4,9.3-4.9,18.3-3.1,28c0.4,2.1-1,4.6-1.9,6.8c-1,2.7-3.2,5.2-3.4,7.9c-0.6,9.3-0.3,18.6-0.8,27.9
	c-0.6,11.5-1.6,22.9,1,34.3c2.9,12.6,4.3,26,9.3,37.7c4.8,11.2,8.4,23.2,15.7,33.4c6.9,9.6,13.3,19.5,19.8,29.3
	c1.3,2,2.2,4.4,3.8,6.1c8.7,9.3,17.6,18.5,26.5,27.6c1.1,1.2,2.4,2.3,3.7,3.3c6.2,4.8,12.3,9.6,18.7,14.1
	c11.6,8.1,23.1,15.9,38.3,16.2c16.3,0.4,29.9-5.1,41.2-16.4c6.3-6.4,12.8-12.8,17.7-20.2c7.2-10.9,13.6-22.3,19.2-34.1
	c5.5-11.4,10.2-23.1,14-35.2c3.8-12,6.4-24.4,8.7-36.7c2.4-13,5.5-26.1,2.8-39.6c-0.2-0.9-0.1-2.1,0.3-3c3.8-9.7,1.8-19.9,1.8-29.8
	c0-9.1-1.3-18.1-2-27.2c-0.4-5.7-0.3-11.6-1.4-17.1c-1.2-5.9-3.6-11.5-5.6-17.2c-2.5-7.3-4.5-14.9-8-21.7
	c-5.9-11.6-12.1-23.1-19.5-33.8c-5.9-8.5-13.6-15.7-20.8-23.3c-1.6-1.7-4.7-1.9-6.4-3.5c-3.2-2.9-5.9-2.1-9.1-0.1
	c-10,6.2-14.5,5.3-20.4-3.2c-2.1,0.7-4.2,2.2-5.9,1.9c-3.2-0.6-6.3-2.2-9.5-3.4c-4.8,11.5-14.2,13.6-21.6,3.9
	c-1.4,2-2.7,3.9-3.9,5.7c-3.7-0.5-7.1-1-10.9-1.5c-2.1,4.1-5.7,5.2-10.5,6.4c-7.6,1.9-6.2-5-8.2-6.7c-4.4,0.9-8.1,2.8-10.8,1.8
	c-2.5-0.9-4-4.8-5.9-7.3c-0.2,0.2-0.5,0.3-0.6,0.6c-1.8,3.5-3.5,7-5.3,10.4c-3.3,6.2-6.7-0.6-10.5,0.1c-2.9,12.1-5.9,24.4-8.9,36.7
	c-0.4-0.1-0.8-0.1-1.2-0.2c-1.8-5.8-3.5-11.7-5.3-17.5C131.1,104.3,130.4,104.6,126,102.7L126,102.7z M357.3,186.2
	c2.8-4.6,5.3-9.6,8.6-14c3.9-5.3,9.9-6.4,13.5-2.7c2.4,2.4,4.8,5.5,5.5,8.6c1.8,8.1,3.9,16,3.6,24.7c-0.3,8-1.6,12.5-10.1,14.5
	c-6.2,1.5-11.8,5.4-17-0.5c-0.5,2.3-1.3,4.2-1.3,6.1c-0.1,4.8-0.1,9.6,0.4,14.4c0.1,1,2.1,2.4,3.4,2.7c3.3,0.8,6.8,0.9,10,1.7
	c6,1.4,11.3-2.1,13.9-5.6c4.2-5.8,6.5-13.2,8.6-20.2c1.5-5,1.6-10.5,2-15.8c1-12,1.4-23.9-4.3-35c-0.8-1.5-1.5-3.1-1.6-4.7
	c-0.2-8.2-6.2-12.4-11.4-17.1c-0.7-0.6-2.9-0.8-3.4-0.3c-4.1,4.4-8.3,8.8-12,13.6c-1.9,2.4-2.6,5.7-4.1,8.4
	C357.9,171.6,354,178.2,357.3,186.2L357.3,186.2z M82.6,223.5c1.1,3.7,2.7,6.4,2.5,8.9c-0.2,3.2-1,7.3-3.1,9.3
	c-1.5,1.4-6.3,0.7-8.5-0.7c-4.2-2.6-7.5-6.7-7.2-12.2c0.5-8.7,0.8-17.4,2.1-26c1.2-7.6,3.4-15.3,9.8-20.5c1.9-1.6,5.3-2.6,7.7-2.2
	c1.7,0.3,3.5,3.2,4.1,5.2c0.8,3,0.1,5.8-3.7,7.1c-2.3,0.8-6.1,10.1-4.6,12.7c0.9,1.6,4.1,1.9,6.3,2.8c1.2,0.5,2.5,0.9,4.1,1.4
	c0-9.1,3.6-17.5,1.6-26.9c-2.1-9.9-1.9-20.5-8.2-29.2c-1.9-2.6-4.6-4.7-7-7c-1.7,2.1-3.4,4.1-5.1,6.2c-0.6,0.8-1.3,1.6-1.5,2.5
	c-2.8,14.5-9.4,28.1-10.1,43.1c-0.1,2.6-0.1,5.4-1,7.8c-3,8.4-2.3,16.7,0.2,24.8c2,6.5,5.5,13.1,12.5,14.8
	c5.1,1.3,10.9-0.2,16.2-0.4c0.6-10.2,1.1-19.4,1.7-29.7C87.8,218.7,84.8,221.5,82.6,223.5L82.6,223.5z M358.7,196.2
	c0.3,3.6,0.6,6.9,0.8,9.2c5.1-3.9,10-7.7,15.3-11.9c-0.5-2.1-1.2-4.9-2-7.9C366.8,188.1,369.5,200.5,358.7,196.2L358.7,196.2z"/>
<path d="M358.7,196.2c10.8,4.2,8.1-8.1,14-10.6c0.8,3,1.5,5.8,2,7.9c-5.3,4.1-10.2,7.9-15.3,11.9C359.3,203.1,359,199.9,358.7,196.2
	L358.7,196.2z"/>
<path d="M202.5,101.4c6.5,4.2,6.8,10.6,8.1,15.9c3.7,15.2,6.8,30.6,9.8,46c1.7,8.7,2.4,17.7,3.9,26.4c3,17.4,7.1,34.7,9.2,52.2
	c2,16.4,7.2,31.6,12.3,47.1c2.4,7.4,1.2,15.4-2.4,21.6c-2.3,3.9-8.8,6.1-13.8,7.5c-9.9,2.8-20.1,2.6-30.1,0
	c-7.2-1.8-13.3-9.1-13.4-16.1c-0.2-15.1,0.4-30.2,0.6-45.3c0.1-4.9,0.1-9.8,0.4-14.7c0.7-10.7,1.8-21.4,2.3-32.2
	c0.5-13,0.5-25.9,0.8-38.9c0.2-9.2,0.6-18.4,0.6-27.6c0-6.7-0.4-13.5-0.8-20.2c-0.3-5.4-0.2-10.3,6.3-12.3c1.2-0.4,2-2.4,2.9-3.8
	C200.2,105.3,201.2,103.5,202.5,101.4L202.5,101.4z M205.6,149c-0.5,2.1-0.7,2.6-0.7,3.2c-0.3,9.3-0.4,18.6-0.8,27.9
	c-1.1,26.1-2.6,52.2-3.3,78.3c-0.3,12.1,0.7,24.2,1.1,36.4c0.1,3.3,1.4,4.9,4.8,4.9c6.4-0.1,12.9,0.1,19.3-0.1
	c4.9-0.2,6.9-3.4,5.9-8.1c-3.5-15.8-7-31.6-10.2-47.5c-2.6-13.1-5-26.2-7-39.4c-2.1-13.8-3.6-27.7-5.6-41.5
	C208.4,158.8,207,154.7,205.6,149L205.6,149z"/>
<path d="M292.7,306.4c3.6,10.7-0.7,19.3-3.9,27.9c-3.3,9.1-6.6,18.4-11.6,26.6c-5,8.3-12,15-22,18.5c-14.7,5.1-28.4,2.8-41.9-3.1
	c-8.4-3.7-17.5-6.9-24.3-12.6c-8.1-6.9-14.3-16.1-21-24.5c-3.7-4.7-7.2-9.8-10.1-15.1c-4.2-7.7-7.7-15.8-11.4-23.7
	c-1.1-2.4-1.9-5-3.3-7.2c-4.5-7.3-4.6-15.2-3.2-23.1c0.9-5.1,5.4-5.8,9.6-6.4c4.1-0.5,5.3,2.5,6.5,5.5c0.4,0.9,0.7,2,0.6,2.9
	c-0.8,11.7,5.5,21.1,10,31.1c2.5,5.5,4.6,11.3,7.8,16.4c4.2,6.8,8.8,13.5,14.2,19.3c9.5,10.4,20,19.6,34.8,21.9
	c4.6,0.7,9,3.2,13.7,3.8c12.4,1.4,21.5-4.6,27.4-14.9c5.4-9.5,9.2-19.9,14.4-29.6C282.1,314.3,286.7,309.6,292.7,306.4L292.7,306.4z
	"/>
<path d="M281.9,222.1c-2.7,0.6-4.4,0.8-6.1,1.4c-4.5,1.6-8.5,1.2-12.2-2.3c-6.7-6.4-8.2-13.6-4.1-21.2c0.2-0.4,0.7-0.7,1.1-0.8
	c4.4-1,8.9-3.6,13.2-0.5c3.5,2.5,7.3,5.4,9.2,9.1C285.8,212.5,284.4,218.2,281.9,222.1L281.9,222.1z"/>
<path d="M163.3,199.8c-2.2,7.9-3.9,15-6.4,21.9c-0.6,1.6-3.1,4.7-6.4,2.1c-1.1-0.8-2.9-0.6-4.2-1.2c-1.7-0.8-4.2-1.4-4.8-2.8
	c-2.4-6-2.6-12.4-1.3-18.7c0.3-1.5,2-3.5,3.4-3.9c4.6-1.3,9.3-2.5,13.9-2.5C159.5,194.5,161.4,197.8,163.3,199.8L163.3,199.8z"/>
<path d="M205.6,149c1.4,5.6,2.8,9.8,3.4,14c2,13.8,3.5,27.7,5.6,41.5c2,13.2,4.4,26.3,7,39.4c3.2,15.9,6.7,31.7,10.2,47.5
	c1.1,4.8-1,8-5.9,8.1c-6.4,0.2-12.9,0-19.3,0.1c-3.4,0-4.7-1.6-4.8-4.9c-0.3-12.1-1.4-24.3-1.1-36.4c0.7-26.1,2.2-52.2,3.3-78.3
	c0.4-9.3,0.5-18.6,0.8-27.9C204.9,151.6,205.1,151.1,205.6,149L205.6,149z"/>
</svg>
